<svg width="98" height="98" viewBox="0 0 98 98" fill="none" xmlns="http://www.w3.org/2000/svg">
<circle cx="49" cy="49" r="49" fill="#00344D"/>
<path fill-rule="evenodd" clip-rule="evenodd" d="M37.5122 51.7383C36.7865 51.0118 36.3789 50.0269 36.3789 49C36.3789 47.9731 36.7865 46.9882 37.5122 46.2617L52.1235 31.6452C52.8504 30.9186 53.8362 30.5105 54.864 30.5107C55.3729 30.5109 55.8769 30.6112 56.347 30.8061C56.8171 31.0009 57.2443 31.2865 57.604 31.6464C57.9638 32.0064 58.2492 32.4337 58.4438 32.9039C58.6384 33.3741 58.7386 33.8781 58.7385 34.387C58.7383 34.8959 58.638 35.3998 58.4431 35.8699C58.2482 36.3401 57.9627 36.7672 57.6027 37.127L45.7323 49L57.6053 60.873C57.9756 61.2303 58.271 61.6577 58.4743 62.1304C58.6776 62.6031 58.7847 63.1115 58.7895 63.626C58.7942 64.1405 58.6964 64.6508 58.5017 65.1271C58.3071 65.6034 58.0196 66.0362 57.6559 66.4002C57.2923 66.7642 56.8598 67.0522 56.3836 67.2472C55.9075 67.4423 55.3973 67.5406 54.8828 67.5363C54.3683 67.5321 53.8597 67.4255 53.3869 67.2226C52.914 67.0197 52.4863 66.7247 52.1287 66.3548L37.507 51.7383H37.5122Z" fill="white"/>
</svg>
