<svg width="98" height="98" viewBox="0 0 98 98" fill="none" xmlns="http://www.w3.org/2000/svg">
<circle cx="49" cy="49" r="49" fill="#00344D"/>
<path fill-rule="evenodd" clip-rule="evenodd" d="M60.4878 51.7383C61.2135 51.0118 61.6211 50.0269 61.6211 49C61.6211 47.9731 61.2135 46.9882 60.4878 46.2617L45.8765 31.6452C45.1496 30.9186 44.1638 30.5105 43.136 30.5107C42.6271 30.5109 42.1231 30.6112 41.653 30.8061C41.1829 31.0009 40.7557 31.2865 40.396 31.6464C40.0362 32.0064 39.7508 32.4337 39.5562 32.9039C39.3616 33.3741 39.2614 33.8781 39.2615 34.387C39.2617 34.8959 39.362 35.3998 39.5569 35.8699C39.7518 36.3401 40.0373 36.7672 40.3973 37.127L52.2677 49L40.3947 60.873C40.0244 61.2303 39.729 61.6577 39.5257 62.1304C39.3224 62.6031 39.2153 63.1115 39.2105 63.626C39.2058 64.1405 39.3036 64.6508 39.4983 65.1271C39.6929 65.6034 39.9804 66.0362 40.3441 66.4002C40.7077 66.7642 41.1402 67.0522 41.6164 67.2472C42.0925 67.4423 42.6027 67.5406 43.1172 67.5363C43.6317 67.5321 44.1403 67.4255 44.6131 67.2226C45.086 67.0197 45.5137 66.7247 45.8713 66.3548L60.493 51.7383H60.4878Z" fill="white"/>
</svg>
