<svg width="8" height="12" viewBox="0 0 8 12" fill="none" xmlns="http://www.w3.org/2000/svg">
<path fill-rule="evenodd" clip-rule="evenodd" d="M7.38333 6.88276C7.61742 6.64839 7.7489 6.33068 7.7489 5.99943C7.7489 5.66818 7.61742 5.35047 7.38333 5.1161L2.67 0.401095C2.43551 0.16671 2.11751 0.0350781 1.78596 0.0351563C1.62179 0.035195 1.45924 0.0675681 1.30758 0.130428C1.15593 0.193287 1.01814 0.285401 0.902085 0.401512C0.786029 0.517622 0.693979 0.655455 0.631191 0.807139C0.568403 0.958824 0.536107 1.12139 0.536145 1.28556C0.536184 1.44972 0.568558 1.61227 0.631417 1.76393C0.694277 1.91558 0.786391 2.05337 0.902502 2.16943L4.73167 5.99943L0.901668 9.82943C0.782227 9.94468 0.686935 10.0826 0.621353 10.235C0.55577 10.3875 0.521213 10.5515 0.519692 10.7175C0.518173 10.8835 0.549722 11.0481 0.612501 11.2017C0.67528 11.3554 0.768029 11.495 0.885339 11.6124C1.00265 11.7298 1.14217 11.8227 1.29576 11.8856C1.44935 11.9486 1.61393 11.9803 1.77991 11.9789C1.94588 11.9775 2.10992 11.9431 2.26246 11.8777C2.41499 11.8123 2.55297 11.7171 2.66833 11.5978L7.385 6.88276H7.38333Z" fill="white"/>
</svg>
