<svg width="33" height="33" viewBox="0 0 33 33" fill="none" xmlns="http://www.w3.org/2000/svg">
<g clip-path="url(#clip0_1_16)">
<path d="M16.5 0C12.1249 0 7.92516 1.73946 4.83398 4.8327C1.73965 7.92717 0.000885453 12.1238 0 16.5C0 20.8743 1.74023 25.0741 4.83398 28.1673C7.92516 31.2605 12.1249 33 16.5 33C20.8751 33 25.0748 31.2605 28.166 28.1673C31.2598 25.0741 33 20.8743 33 16.5C33 12.1257 31.2598 7.92593 28.166 4.8327C25.0748 1.73946 20.8751 0 16.5 0Z" fill="url(#paint0_linear_1_16)"/>
<path d="M7.46879 16.3257C12.2796 14.2302 15.4868 12.8487 17.0903 12.1811C21.6743 10.2751 22.6256 9.94409 23.2469 9.93287C23.3835 9.93068 23.6878 9.96445 23.8863 10.1249C24.0513 10.2603 24.0977 10.4433 24.1209 10.5719C24.1415 10.7003 24.1699 10.9929 24.1467 11.2213C23.8992 13.8304 22.8241 20.1617 22.2775 23.084C22.0481 24.3205 21.5918 24.735 21.1509 24.7755C20.1918 24.8637 19.4648 24.1423 18.5367 23.5342C17.0852 22.5821 16.2653 21.9896 14.8551 21.0607C13.2257 19.9872 14.2828 19.397 15.2109 18.4328C15.4532 18.1804 19.6762 14.3403 19.7561 13.992C19.7664 13.9484 19.7768 13.786 19.6788 13.7004C19.5834 13.6146 19.4416 13.644 19.3385 13.6672C19.1915 13.7002 16.8738 15.2336 12.3775 18.2673C11.7201 18.7195 11.1246 18.9399 10.5883 18.9283C10.0005 18.9157 8.86613 18.5952 8.02308 18.3214C6.99183 17.9855 6.16941 17.8079 6.2416 17.2373C6.27769 16.9403 6.68761 16.6364 7.46879 16.3257Z" fill="white"/>
</g>
<defs>
<linearGradient id="paint0_linear_1_16" x1="1650" y1="0" x2="1650" y2="3300" gradientUnits="userSpaceOnUse">
<stop stop-color="#2AABEE"/>
<stop offset="1" stop-color="#229ED9"/>
</linearGradient>
<clipPath id="clip0_1_16">
<rect width="33" height="33" fill="white"/>
</clipPath>
</defs>
</svg>
