<svg width="14" height="14" viewBox="0 0 14 14" fill="none" xmlns="http://www.w3.org/2000/svg">
<path d="M3.5593 0.650372C3.30125 0.0319647 3.02968 0.0194863 2.78428 0.00864111C2.58333 -0.000688061 2.35362 1.19175e-05 2.12412 1.19175e-05C1.8944 1.19175e-05 1.52117 0.0931871 1.20569 0.464605C0.88988 0.836372 0 1.73477 0 3.562C0 5.38924 1.23435 7.15525 1.40642 7.40329C1.5787 7.65086 3.78935 11.5206 7.29046 13.0093C10.2002 14.2465 10.7923 14.0004 11.4238 13.9384C12.0555 13.8766 13.4619 13.0402 13.7488 12.1729C14.0359 11.3058 14.0359 10.5625 13.9499 10.4072C13.8638 10.2524 13.6341 10.1595 13.2896 9.97382C12.9451 9.78817 11.2516 8.88954 10.9359 8.76558C10.6201 8.64174 10.3904 8.57993 10.1607 8.95182C9.93101 9.32312 9.27139 10.1595 9.07033 10.4072C8.86949 10.6554 8.66844 10.6863 8.32408 10.5006C7.9794 10.3142 6.87008 9.92251 5.55397 8.65736C4.52998 7.6729 3.83866 6.4572 3.63772 6.08531C3.43677 5.71401 3.61619 5.51273 3.78891 5.32767C3.94368 5.16126 4.13349 4.89398 4.30588 4.67719C4.47763 4.46029 4.53495 4.30554 4.64981 4.05785C4.76477 3.80993 4.70724 3.59302 4.62126 3.40726C4.53495 3.22149 3.86559 1.38469 3.5593 0.650372Z" fill="white"/>
</svg>
