<svg width="34" height="34" viewBox="0 0 34 34" fill="none" xmlns="http://www.w3.org/2000/svg">
<g clip-path="url(#clip0_1_19)">
<path d="M-2.11653 17.5205C-2.11747 20.8733 -1.23385 24.1471 0.446343 27.0327L-2.27722 36.8919L7.89941 34.2464C10.7141 35.7656 13.8678 36.5616 17.0726 36.5618H17.081C27.6606 36.5618 36.2727 28.0265 36.2772 17.5355C36.2792 12.4518 34.2842 7.6715 30.6595 4.07504C27.0355 0.478888 22.2157 -1.50263 17.0802 -1.50495C6.4994 -1.50495 -2.11201 7.02992 -2.11638 17.5205" fill="url(#paint0_linear_1_19)"/>
<path d="M-2.80194 17.5143C-2.80304 20.9878 -1.88775 24.3787 -0.147648 27.3676L-2.96887 37.5802L7.57265 34.8399C10.4772 36.41 13.7474 37.2378 17.075 37.239H17.0836C28.0428 37.239 36.9642 28.3966 36.9688 17.5301C36.9707 12.2638 34.9039 7.31159 31.1498 3.58628C27.3952 -0.138559 22.403 -2.19138 17.0836 -2.19355C6.12257 -2.19355 -2.79758 6.64758 -2.80194 17.5143ZM3.47592 26.8529L3.08231 26.2334C1.42771 23.625 0.554382 20.6107 0.55563 17.5155C0.559062 8.48339 7.97312 1.13502 17.0898 1.13502C21.5048 1.13688 25.654 2.84323 28.7747 5.93917C31.8953 9.03542 33.6125 13.1513 33.6114 17.5288C33.6074 26.561 26.1931 33.9103 17.0836 33.9103H17.077C14.1109 33.9087 11.2018 33.119 8.66486 31.6265L8.06111 31.2716L1.80556 32.8976L3.47592 26.8529Z" fill="url(#paint1_linear_1_19)"/>
<path d="M12.1135 9.27517C11.7413 8.45494 11.3496 8.43839 10.9956 8.424C10.7057 8.41163 10.3744 8.41256 10.0433 8.41256C9.71198 8.41256 9.1736 8.53614 8.71853 9.02877C8.26299 9.52187 6.97937 10.7135 6.97937 13.1371C6.97937 15.5606 8.75987 17.903 9.00808 18.232C9.2566 18.5604 12.4454 23.693 17.4956 25.6676C21.6928 27.3085 22.547 26.9822 23.4579 26.8999C24.369 26.8179 26.3977 25.7086 26.8116 24.5583C27.2258 23.4081 27.2258 22.4222 27.1016 22.2162C26.9774 22.011 26.646 21.8877 26.1492 21.6415C25.6523 21.3952 23.2094 20.2033 22.754 20.0389C22.2984 19.8746 21.9672 19.7926 21.6359 20.2859C21.3045 20.7784 20.353 21.8877 20.063 22.2162C19.7733 22.5455 19.4833 22.5865 18.9866 22.3401C18.4894 22.0929 16.8892 21.5734 14.9908 19.8953C13.5137 18.5896 12.5165 16.9771 12.2267 16.4839C11.9368 15.9914 12.1956 15.7244 12.4448 15.479C12.668 15.2582 12.9418 14.9037 13.1905 14.6162C13.4382 14.3285 13.5209 14.1232 13.6866 13.7947C13.8524 13.4659 13.7694 13.1782 13.6454 12.9318C13.5209 12.6854 12.5554 10.2491 12.1135 9.27517Z" fill="white"/>
</g>
<defs>
<linearGradient id="paint0_linear_1_19" x1="1925.44" y1="3838.18" x2="1925.44" y2="-1.50495" gradientUnits="userSpaceOnUse">
<stop stop-color="#1FAF38"/>
<stop offset="1" stop-color="#60D669"/>
</linearGradient>
<linearGradient id="paint1_linear_1_19" x1="1993.92" y1="3975.18" x2="1993.92" y2="-2.19355" gradientUnits="userSpaceOnUse">
<stop stop-color="#F9F9F9"/>
<stop offset="1" stop-color="white"/>
</linearGradient>
<clipPath id="clip0_1_19">
<rect width="34" height="34" fill="white"/>
</clipPath>
</defs>
</svg>
